<?xml version="1.0" encoding="UTF-8" standalone="no"?>
<!-- Created with Inkscape (http://www.inkscape.org/) -->

<svg
   width="1024"
   height="1024"
   viewBox="0 0 270.93333 270.93333"
   version="1.1"
   id="svg1"
   xml:space="preserve"
   inkscape:version="1.3 (0e150ed, 2023-07-21)"
   sodipodi:docname="描画.svg"
   inkscape:export-filename="描画.png"
   inkscape:export-xdpi="96"
   inkscape:export-ydpi="96"
   xmlns:inkscape="http://www.inkscape.org/namespaces/inkscape"
   xmlns:sodipodi="http://sodipodi.sourceforge.net/DTD/sodipodi-0.dtd"
   xmlns="http://www.w3.org/2000/svg"
   xmlns:svg="http://www.w3.org/2000/svg"><sodipodi:namedview
     id="namedview1"
     pagecolor="#ffffff"
     bordercolor="#000000"
     borderopacity="0.25"
     inkscape:showpageshadow="2"
     inkscape:pageopacity="0.0"
     inkscape:pagecheckerboard="0"
     inkscape:deskcolor="#d1d1d1"
     inkscape:document-units="mm"
     inkscape:zoom="0.4919811"
     inkscape:cx="117.89071"
     inkscape:cy="372.98181"
     inkscape:window-width="1800"
     inkscape:window-height="1012"
     inkscape:window-x="0"
     inkscape:window-y="44"
     inkscape:window-maximized="1"
     inkscape:current-layer="layer1" /><defs
     id="defs1" /><g
     inkscape:label="Layer 1"
     inkscape:groupmode="layer"
     id="layer1"><rect
       style="fill:#f7dab3;fill-opacity:1;stroke:none;stroke-width:1.32292;stroke-linecap:round;stroke-linejoin:round;stroke-dasharray:none;stroke-opacity:1"
       id="rect30"
       width="308.69241"
       height="96.802498"
       x="-21.511667"
       y="183.38696"
       ry="0" /><path
       id="path1-0"
       style="fill:#ffe8ba;stroke:#996b5f;stroke-width:1.32292;stroke-opacity:1;fill-opacity:0.7264151"
       d="m 254.5282,196.90472 c 5.45949,0 9.88528,2.55515 9.88505,5.70695 -2.2e-4,1.13896 -4.42601,2.06237 -9.88551,2.06237 -5.4595,0 -9.88529,-0.92341 -9.88505,-2.06237 2.3e-4,-3.1518 4.42602,-5.70695 9.88551,-5.70695 z"
       sodipodi:nodetypes="scscs" /><rect
       style="fill:#ffffff;fill-opacity:1;stroke:#996b5f;stroke-width:1.32291667;stroke-dasharray:none;stroke-opacity:1;stroke-linejoin:round"
       id="rect4"
       width="236.33899"
       height="9.6054592"
       x="46.687004"
       y="177.58932" /><path
       id="path2"
       style="fill:#ffe8ba;stroke:#996b5f;stroke-width:1.32292;stroke-opacity:1;fill-opacity:1"
       d="m 256.92568,126.97399 0.08,70.79711 c 0.001,1.20308 -1.10056,2.17838 -2.30364,2.17838 -1.20308,0 -2.17838,-0.9753 -2.17837,-2.17838 l 3.3e-4,-70.71332"
       sodipodi:nodetypes="csssc" /><path
       id="path3"
       style="fill:#ffffff;fill-opacity:1;stroke:#996b5f;stroke-width:1.32292;stroke-linecap:round;stroke-opacity:1"
       d="m 265.18379,93.228465 c 7.22769,22.953005 10.20358,24.996315 10.3238,27.224875 0.20125,3.73058 -9.33164,6.23831 -20.84278,6.23831 -11.51114,0 -20.62913,-2.0182 -20.84278,-6.23831 -0.19485,-3.84872 3.42194,-5.96029 10.18533,-27.476023"
       sodipodi:nodetypes="csssc" /><ellipse
       style="fill:#ffffff;fill-opacity:1;stroke:#996b5f;stroke-width:1.32292;stroke-dasharray:none;stroke-opacity:1"
       id="path4"
       cx="254.5269"
       cy="93.072968"
       rx="10.54181"
       ry="2.598032" /><rect
       style="fill:#ffe9bc;fill-opacity:1;stroke:#996b5f;stroke-width:1.32292;stroke-linecap:round;stroke-linejoin:round;stroke-dasharray:none;stroke-opacity:1"
       id="rect5"
       width="59.777378"
       height="40.324036"
       x="84.78064"
       y="44.350601"
       ry="1.8238003" /><rect
       style="fill:#e3f4fd;fill-opacity:1;stroke:#996b5f;stroke-width:1.32292;stroke-linecap:round;stroke-linejoin:round;stroke-dasharray:none;stroke-opacity:1"
       id="rect6"
       width="49.050629"
       height="29.372787"
       x="90.038147"
       y="49.914532"
       ry="0.048925236" /><path
       style="fill:#fab6cd;fill-opacity:1;stroke:none;stroke-width:1.32292;stroke-linecap:round;stroke-linejoin:round;stroke-dasharray:none;stroke-opacity:1"
       d="m 103.01455,64.033703 c 0,0 -0.1314,-8.102761 10.73068,-8.409349 10.86208,-0.306592 10.90588,9.986102 10.90588,9.986102 l -9.06633,6.000422 -9.28533,-1.927143 z"
       id="path23" /><path
       style="fill:#ffe9bb;fill-opacity:1;stroke:none;stroke-width:1.32292;stroke-linecap:round;stroke-linejoin:round;stroke-dasharray:none;stroke-opacity:1"
       d="m 124.60731,64.734482 c 0.30659,2.75932 -0.56938,8.190359 -10.68688,8.628345 -10.1175,0.437986 -10.51169,-8.015163 -10.51169,-8.015163 0,0 2.36513,1.620553 4.55506,1.445359 0,0 3.08606,2.788979 4.99306,1.795746 4.20467,-2.189935 6.6136,-0.832175 8.45314,-1.883344 1.83955,-1.051169 3.19731,-1.970943 3.19731,-1.970943 z"
       id="path22"
       sodipodi:nodetypes="csccssc" /><path
       id="path6"
       style="fill:none;fill-opacity:1;stroke:#996b5f;stroke-width:1.32292;stroke-linecap:round;stroke-linejoin:round;stroke-opacity:1"
       d="m 124.54179,64.926796 c 0,5.30205 -4.57837,8.513575 -10.55735,8.379495 -6.0483,-0.135635 -10.22674,-2.112124 -10.82862,-9.396758 -0.45252,-5.476933 5.59414,-8.243861 10.89644,-8.243861 5.98048,0 10.48953,3.959074 10.48953,9.261124 z"
       sodipodi:nodetypes="sssss" /><path
       style="fill:none;fill-opacity:0.726415;stroke:#996b5f;stroke-width:1.32292;stroke-linecap:round;stroke-linejoin:round;stroke-dasharray:none;stroke-opacity:1"
       d="m 103.21932,64.291021 c 0.47472,1.436049 2.01248,2.34091 4.04235,2.415763 1.28944,0.04755 2.42955,2.314986 4.20469,2.289318 1.97699,-0.02859 2.69898,-1.002277 4.06445,-1.377425 1.66541,-0.457553 3.86517,-0.219958 5.49322,-0.682772 1.4749,-0.419278 2.81079,-2.102342 3.48896,-2.983971"
       id="path7"
       sodipodi:nodetypes="cssssc" /><path
       style="fill:#b7f3cd;fill-opacity:1;stroke:#996b5f;stroke-width:1.32292;stroke-linecap:round;stroke-linejoin:round;stroke-dasharray:none;stroke-opacity:1"
       d="m 17.435108,117.88332 c 3.062925,-4.16244 6.283807,-8.24503 8.246335,-9.50292 1.522194,-0.97565 6.112374,-1.27916 6.112374,-1.27916 -0.577487,1.88322 -2.308554,4.239 -3.689977,6.02538 -1.909571,4.28402 -4.489601,8.96602 -6.350282,11.16129 -0.892645,1.05315 -6.297189,3.48829 -6.297189,3.48829 l -5.425422,3.06224 -0.5451602,-8.5045 5.1245052,-5.01547 z"
       id="path8"
       sodipodi:nodetypes="csccsc" /><path
       style="fill:#b7f3cd;fill-opacity:1;stroke:#996b5f;stroke-width:1.32292;stroke-linecap:round;stroke-linejoin:round;stroke-dasharray:none;stroke-opacity:1"
       d="m 10.995113,113.09259 c 0,0 0.785369,-12.64438 -0.314146,-23.168274 0,0 -3.5902451,4.0889 -5.2619469,9.974142 -0.8798345,3.097462 -5e-7,11.309262 0.1570726,16.963892 L 4.6883774,122.8791 7.3051462,127.56748 13.9561,117.1004 Z"
       id="path10"
       sodipodi:nodetypes="ccsc" /><path
       style="fill:#b7f3cd;fill-opacity:1;stroke:#996b5f;stroke-width:1.32292;stroke-linecap:round;stroke-linejoin:round;stroke-dasharray:none;stroke-opacity:1"
       d="m 12.016088,127.85746 c 1.178048,-1.72781 4.775309,-8.18901 5.733166,-10.75951 0.889149,-2.38612 2.197285,-8.94448 2.905852,-23.718024 -1.884876,1.413658 -4.814007,6.104966 -5.576094,8.796094 -0.98657,3.48383 -2.4597,7.28266 -3.534143,9.73853 -2.1990227,5.02633 -3.6126802,9.34585 -3.9268263,11.85901 l -0.9670887,1.94037 2.9438648,7.95934 z"
       id="path9"
       sodipodi:nodetypes="cscssc" /><path
       style="fill:#b7f3cd;fill-opacity:1;stroke:#996b5f;stroke-width:1.32292;stroke-linecap:round;stroke-linejoin:round;stroke-dasharray:none;stroke-opacity:1"
       d="m 8.789091,128.13569 c 0,0 -2.8125988,-10.60745 -3.9319618,-13.33783 -0.9524714,-2.32329 -5.78229665,-11.3333 -9.0974801,-9.94555 0,0 -0.2312919,9.48297 10.7936205,23.20629 l -1.319732,3.97919 4.9064414,-1.96258 z"
       id="path11"
       sodipodi:nodetypes="cscc" /><rect
       style="fill:#eccfaa;fill-opacity:1;stroke:#996b5f;stroke-width:1.32292;stroke-linecap:round;stroke-linejoin:round;stroke-dasharray:none;stroke-opacity:1"
       id="rect12"
       width="57.25"
       height="60.820927"
       x="-7.3722334"
       y="149.97888"
       ry="0.048925236" /><path
       id="rect13"
       style="fill:#eccfaa;stroke:#996b5f;stroke-width:1.32292;stroke-linecap:round;stroke-linejoin:round;stroke-opacity:1;fill-opacity:1"
       d="m 46.734988,137.98083 -50.5882609,-3e-5 1.5174198,15.21741 56.2723531,-5.782 c -5.783646,-9.24566 -5.890916,-9.49866 -7.201512,-9.43538 z"
       sodipodi:nodetypes="ccccc" /><path
       id="rect14"
       style="fill:#eccfaa;stroke:#996b5f;stroke-width:1.32292;stroke-linecap:round;stroke-linejoin:round;stroke-opacity:1;fill-opacity:1"
       d="m -6.5658956,147.496 60.5620946,-6e-5 0.02845,5.59309 H -6.5658956 Z"
       sodipodi:nodetypes="ccccc" /><rect
       style="fill:none;fill-opacity:1;stroke:#996b5f;stroke-width:1.32292;stroke-linecap:round;stroke-linejoin:round;stroke-dasharray:none;stroke-opacity:1"
       id="rect16"
       width="10.560129"
       height="3.2953665"
       x="5.3175125"
       y="159.89984"
       ry="1.5727887" /><path
       id="path12"
       style="fill:#fadaf8;fill-opacity:1;stroke:#996b5f;stroke-width:1.32292;stroke-linecap:round;stroke-linejoin:round;stroke-opacity:1"
       d="m 15.930011,128.50855 c 1.25575,-0.005 1.885502,-0.095 1.876689,1.47494 l -0.06302,5.32172 c -0.03053,2.57783 -1.73576,6.96426 -8.0026325,6.96426 -5.4456002,0 -7.6160559,-3.50257 -7.6863992,-6.71156 l -0.1263497,-5.76394 c -0.050473,-0.94978 0.5024783,-1.42268 1.5101008,-1.33118 z"
       sodipodi:nodetypes="ccsssccc" /><path
       style="fill:none;fill-opacity:1;stroke:#996b5f;stroke-width:1.32292;stroke-linecap:round;stroke-linejoin:round;stroke-dasharray:none;stroke-opacity:1"
       d="m 250.54122,95.813804 c -1.00301,14.147716 -3.00903,24.125016 -4.80388,30.090286"
       id="path17"
       sodipodi:nodetypes="cc" /><path
       style="fill:none;fill-opacity:1;stroke:#996b5f;stroke-width:1.32292;stroke-linecap:round;stroke-linejoin:round;stroke-dasharray:none;stroke-opacity:1"
       d="m 258.51251,96.024965 c 0.31674,10.980315 2.79787,23.333165 4.53994,29.879125"
       id="path18"
       sodipodi:nodetypes="cc" /><circle
       style="fill:#ffffff;fill-opacity:1;stroke:#996b5f;stroke-width:1.32292;stroke-linecap:round;stroke-linejoin:round;stroke-dasharray:none;stroke-opacity:1"
       id="path19"
       cx="260.92157"
       cy="131.58975"
       r="1.273285" /><path
       style="fill:none;fill-opacity:1;stroke:#996b5f;stroke-width:1.32292;stroke-linecap:round;stroke-linejoin:round;stroke-dasharray:none;stroke-opacity:1"
       d="m 260.93853,126.85314 v 3.08983"
       id="path20"
       sodipodi:nodetypes="cc" /><ellipse
       style="fill:#996b5f;fill-opacity:1;stroke:none;stroke-width:1.32292;stroke-linecap:round;stroke-linejoin:round;stroke-dasharray:none;stroke-opacity:1"
       id="path21"
       cx="113.77429"
       cy="61.814548"
       rx="2.8623497"
       ry="1.4349469" /><rect
       style="fill:#ffffff;fill-opacity:1;stroke:none;stroke-width:1.32292;stroke-linecap:round;stroke-linejoin:round;stroke-dasharray:none;stroke-opacity:1"
       id="rect24"
       width="7.0351076"
       height="17.87299"
       x="35.270611"
       y="180.63116"
       ry="0" /><rect
       style="fill:#b7e8cd;fill-opacity:1;stroke:none;stroke-width:1.32292;stroke-linecap:round;stroke-linejoin:round;stroke-dasharray:none;stroke-opacity:1"
       id="rect25"
       width="7.2252469"
       height="17.968042"
       x="21.390533"
       y="180.72623" /><rect
       style="fill:#b7e8cd;fill-opacity:1;stroke:none;stroke-width:1.32292;stroke-linecap:round;stroke-linejoin:round;stroke-dasharray:none;stroke-opacity:1"
       id="rect26"
       width="7.6055226"
       height="18.348322"
       x="7.1301775"
       y="180.34595" /><rect
       style="fill:#fbb5cd;fill-opacity:1;stroke:none;stroke-width:1.32292;stroke-linecap:round;stroke-linejoin:round;stroke-dasharray:none;stroke-opacity:1"
       id="rect27"
       width="6.8449702"
       height="17.872978"
       x="28.42564"
       y="180.72623" /><rect
       style="fill:#ffffff;fill-opacity:1;stroke:none;stroke-width:1.32292;stroke-linecap:round;stroke-linejoin:round;stroke-dasharray:none;stroke-opacity:1"
       id="rect28"
       width="6.7499013"
       height="18.253254"
       x="14.450493"
       y="180.44102" /><rect
       style="fill:#f8dafb;fill-opacity:1;stroke:none;stroke-width:1.32292;stroke-linecap:round;stroke-linejoin:round;stroke-dasharray:none;stroke-opacity:1"
       id="rect29"
       width="7.1301775"
       height="18.063116"
       x="0.19013806"
       y="180.44102" /><g
       id="g23"><path
         id="rect15"
         style="fill:none;stroke:#996b5f;stroke-width:1.32292;stroke-linecap:round;stroke-linejoin:round;stroke-opacity:1"
         d="m 42.315417,153.15932 v 49.1308 h -53.250019"
         sodipodi:nodetypes="ccc" /><path
         style="fill:none;fill-opacity:1;stroke:#996b5f;stroke-width:1.32292;stroke-linecap:round;stroke-linejoin:round;stroke-dasharray:none;stroke-opacity:1"
         d="M 41.94094,174.35448 H -5.0179337"
         id="path15" /><path
         style="fill:none;fill-opacity:1;stroke:#996b5f;stroke-width:1.32292;stroke-linecap:round;stroke-linejoin:round;stroke-dasharray:none;stroke-opacity:1"
         d="M 42.010789,180.63407 H -4.9480838"
         id="path15-8" /><path
         style="fill:none;fill-opacity:1;stroke:#996b5f;stroke-width:1.32292;stroke-linecap:round;stroke-linejoin:round;stroke-dasharray:none;stroke-opacity:1"
         d="M 41.954855,184.96191 H -5.004019"
         id="path15-9" /><path
         style="fill:none;fill-opacity:1;stroke:#996b5f;stroke-width:1.32292;stroke-linecap:round;stroke-linejoin:round;stroke-dasharray:none;stroke-opacity:1"
         d="M 41.995794,198.78731 H -4.9630809"
         id="path15-7" /><path
         style="fill:none;fill-opacity:1;stroke:#996b5f;stroke-width:1.32292;stroke-linecap:round;stroke-linejoin:round;stroke-dasharray:none;stroke-opacity:1"
         d="M 35.350221,180.94519 V 198.5454"
         id="path16"
         sodipodi:nodetypes="cc" /><path
         style="fill:none;fill-opacity:1;stroke:#996b5f;stroke-width:1.32292;stroke-linecap:round;stroke-linejoin:round;stroke-dasharray:none;stroke-opacity:1"
         d="m 28.412998,180.92355 v 17.60021"
         id="path16-0"
         sodipodi:nodetypes="cc" /><path
         style="fill:none;fill-opacity:1;stroke:#996b5f;stroke-width:1.32292;stroke-linecap:round;stroke-linejoin:round;stroke-dasharray:none;stroke-opacity:1"
         d="m 21.436958,181.00853 v 17.60021"
         id="path16-5"
         sodipodi:nodetypes="cc" /><path
         style="fill:none;fill-opacity:1;stroke:#996b5f;stroke-width:1.32292;stroke-linecap:round;stroke-linejoin:round;stroke-dasharray:none;stroke-opacity:1"
         d="m 14.490821,180.94345 v 17.60021"
         id="path16-1"
         sodipodi:nodetypes="cc" /><path
         style="fill:none;fill-opacity:1;stroke:#996b5f;stroke-width:1.32292;stroke-linecap:round;stroke-linejoin:round;stroke-dasharray:none;stroke-opacity:1"
         d="m 7.5082733,180.94345 v 17.60021"
         id="path16-58"
         sodipodi:nodetypes="cc" /><path
         style="fill:none;fill-opacity:1;stroke:#996b5f;stroke-width:1.32292;stroke-linecap:round;stroke-linejoin:round;stroke-dasharray:none;stroke-opacity:1"
         d="m 0.52968752,180.88261 v 17.60021"
         id="path16-9"
         sodipodi:nodetypes="cc" /></g></g></svg>
